# xmcd
# 
# Track frame offsets:
#     150
#     14504
#     35257
#     59309
#     76858
#     96410
#     134932
#     152846
#     174455
#     188598
#     213550
#     227769
#     254338
#     279259
#     299222
# 
# Disc length: 4063
# 
# Revision: 2
# Processed by: cddbd v1.5.2PL0 Copyright (c) Steve Scherf et al.
# Submitted via: fre:ac v1.0.17
# 
DISCID=dd0fdd0f
DTITLE=Jean-Jacques Milteau - Live, hot n'blue
DYEAR=2007
DGENRE=Blues
TTITLE0=Messin' with the Kid
TTITLE1=T.M.C.P
TTITLE2=Wade in the Water
TTITLE3=My Share
TTITLE4=Boogie Mix
TTITLE5=Same Kind of Pressure
TTITLE6=You're so Fine
TTITLE7=Ray Charles Medley
TTITLE8=Demi's Walk
TTITLE9=Junior Parker
TTITLE10=Make Some Changes
TTITLE11=At Last on Time
TTITLE12=Chain of Fools
TTITLE13=Before You Accuse Me
TTITLE14=Boogie Mix Reprise
EXTD=
EXTT0=
EXTT1=
EXTT2=
EXTT3=
EXTT4=
EXTT5=
EXTT6=
EXTT7=
EXTT8=
EXTT9=
EXTT10=
EXTT11=
EXTT12=
EXTT13=
EXTT14=
PLAYORDER=
